PathFileType	4	(X/Y/Z)	output.trc
DataRate	CameraRate	NumFrames	NumMarkers	Units	OrigDataRate	OrigDataStartFrame	OrigNumFrames
200	200	4	68	mm	200	222	295
Frame#	Time			LASI			RASI			RSACR			LSACR			USACR			LBAR			RBAR			RHEE			RMT1			RMT5			RMT2			LHEE			LMT1			LMT5			LMT2			LMMAL			LMFC			LLFC			LLMAL			LTIB4			LTIB2			LTIB3			LTIB1			RMMAL			RMFC			RLFC			RLMAL			RTIB1			RTIB2			RTIB3			RTHI1			RTHI4			RTHI3			RTHI2			LTHI1			LTHI4			LTHI3			LTHI2			FHD			LBHD			RBHD			C7			T10			CLAV			LSHO			RSHO			LRAD			LUL			LRFIN			RRAD			RUL			RUFIN			RLEP			RMEP			LLEP			LMEP			LDUPA			LMUPA			LUUPA			RDUPA			RUUPA			RMUPA			LHJC			RHJC			LKJC			RKJC			LAJC			RAJC
		X1	Y1	Z1	X2	Y2	Z2	X3	Y3	Z3	X4	Y4	Z4	X5	Y5	Z5	X6	Y6	Z6	X7	Y7	Z7	X8	Y8	Z8	X9	Y9	Z9	X10	Y10	Z10	X11	Y11	Z11	X12	Y12	Z12	X13	Y13	Z13	X14	Y14	Z14	X15	Y15	Z15	X16	Y16	Z16	X17	Y17	Z17	X18	Y18	Z18	X19	Y19	Z19	X20	Y20	Z20	X21	Y21	Z21	X22	Y22	Z22	X23	Y23	Z23	X24	Y24	Z24	X25	Y25	Z25	X26	Y26	Z26	X27	Y27	Z27	X28	Y28	Z28	X29	Y29	Z29	X30	Y30	Z30	X31	Y31	Z31	X32	Y32	Z32	X33	Y33	Z33	X34	Y34	Z34	X35	Y35	Z35	X36	Y36	Z36	X37	Y37	Z37	X38	Y38	Z38	X39	Y39	Z39	X40	Y40	Z40	X41	Y41	Z41	X42	Y42	Z42	X43	Y43	Z43	X44	Y44	Z44	X45	Y45	Z45	X46	Y46	Z46	X47	Y47	Z47	X48	Y48	Z48	X49	Y49	Z49	X50	Y50	Z50	X51	Y51	Z51	X52	Y52	Z52	X53	Y53	Z53	X54	Y54	Z54	X55	Y55	Z55	X56	Y56	Z56	X57	Y57	Z57	X58	Y58	Z58	X59	Y59	Z59	X60	Y60	Z60	X61	Y61	Z61	X62	Y62	Z62	X63	Y63	Z63	X64	Y64	Z64	X65	Y65	Z65	X66	Y66	Z66	X67	Y67	Z67	X68	Y68	Z68
221	1.105000	134.057373	918.264465	-761.954956	129.883286	918.941895	-984.474792	309.569855	950.043701	-912.301941	308.753723	953.274170	-852.382202	297.912018	966.431580	-882.266846	1270.829834	26.306625	346.482971	1226.424927	26.282576	-1876.960815	323.079163	39.819351	-1019.664978	128.177444	43.431141	-1043.319580	165.006622	34.981731	-1113.797241	140.178757	42.694317	-1079.971313	326.269501	45.829021	-745.167236	134.390198	46.323627	-736.453796	169.968430	33.419888	-662.787354	143.175659	45.911896	-698.039978	276.689545	72.942352	-778.686951	232.924194	456.936401	-829.013123	219.289917	454.004028	-721.389709	278.818573	69.139153	-700.989380	290.291870	209.600357	-691.444214	313.941040	270.895935	-691.375244	263.392975	268.134735	-684.436584	301.508759	314.300018	-687.130371	275.182556	68.348114	-994.079102	235.313751	446.552307	-935.368103	220.629150	461.324158	-1041.228394	284.678040	72.247643	-1068.606934	257.113342	319.274170	-1082.692505	307.559204	314.010010	-1077.175903	276.587280	256.134277	-1081.315918	241.856491	783.854797	-1060.045532	242.908905	635.151672	-1064.522827	191.485016	637.061890	-1066.591309	219.118896	697.188232	-1070.186157	238.653885	778.858582	-698.631775	236.448746	646.768799	-694.291504	185.886887	637.479797	-693.354126	200.320877	701.212097	-689.164551	130.807617	1592.938721	-775.654358	241.603943	1576.136353	-786.615173	253.162506	1571.354004	-910.094971	263.604645	1391.415039	-857.920715	285.974487	1007.456543	-877.343140	141.462204	1328.030518	-872.721680	245.424301	1380.983521	-725.161377	237.218124	1396.811523	-986.804199	166.099289	1358.759888	-222.708847	206.730286	1354.270020	-222.340958	152.664764	1338.092041	-130.811920	241.496704	1390.089844	-1500.601807	288.411530	1383.991943	-1499.730469	235.710846	1392.354614	-1590.771606	293.830688	1330.350708	-1271.387451	255.517258	1296.781372	-1271.955200	222.068909	1300.486450	-454.088470	181.197159	1278.075806	-466.788269	238.084000	1354.147339	-506.108643	202.177628	1371.708984	-536.675293	239.232056	1362.719849	-585.316040	266.840332	1382.650879	-1205.680054	257.599976	1384.225464	-1143.967285	216.572983	1385.758789	-1212.196411	227.154999	883.465759	-770.989624	227.103210	884.280151	-985.607422	226.107056	455.470215	-775.201416	227.971451	453.938232	-988.298218	277.754059	71.040756	-739.838135	279.930298	70.297882	-1031.343018
222	1.110000	134.065842	918.271790	-761.956360	129.898468	918.953857	-984.469177	309.574829	950.034668	-912.301636	308.769043	953.274048	-852.382141	297.922638	966.413818	-882.261536	1270.815063	26.292246	346.492859	1226.421509	26.281040	-1876.963135	323.071564	39.821793	-1019.666565	128.181747	43.435875	-1043.329346	165.072998	34.819847	-1113.678467	140.173599	42.695339	-1079.965942	326.264038	45.822929	-745.174438	134.394714	46.322018	-736.449402	169.976227	33.401814	-662.784851	143.176636	45.911758	-698.041138	276.688202	72.947960	-778.691040	232.911011	456.932190	-829.021667	219.291321	453.998260	-721.392029	278.815643	69.132545	-700.987427	290.289215	209.604767	-691.441589	313.947327	270.901733	-691.377197	263.460724	268.160736	-684.492554	301.540588	314.321198	-687.081360	275.181152	68.347832	-994.070435	235.298126	446.560455	-935.363892	220.627319	461.325043	-1041.222412	284.677521	72.246826	-1068.601318	257.112000	319.278198	-1082.691895	307.554596	314.002472	-1077.168701	276.579834	256.136078	-1081.321289	241.866028	783.857239	-1060.054810	242.887665	635.149048	-1064.509644	191.467133	637.056946	-1066.587646	219.223236	697.052063	-1070.107178	238.657288	778.864197	-698.625793	236.510895	646.572144	-694.984558	185.865067	637.487488	-693.386780	200.313766	701.211792	-689.169800	130.813156	1592.918945	-775.647156	241.595001	1576.147339	-786.617554	253.174042	1571.354248	-910.103149	263.641998	1391.416626	-857.918823	285.986206	1007.459045	-877.332275	141.496063	1328.037720	-872.717041	245.450317	1380.988037	-725.153076	237.243423	1396.819214	-986.797424	166.098419	1358.690552	-222.708557	206.711380	1354.204224	-222.336273	152.649307	1338.015869	-130.809387	241.517410	1390.123169	-1500.594238	288.428314	1384.032104	-1499.728882	235.739044	1392.393433	-1590.754883	293.847351	1330.368652	-1271.379517	255.540894	1296.813599	-1271.950195	222.079697	1300.443237	-454.097260	181.206726	1278.038086	-466.803741	238.082245	1354.140747	-506.109894	202.185974	1371.677856	-536.676514	239.249969	1362.711670	-585.320190	266.855194	1382.659912	-1205.670044	257.626923	1384.239136	-1143.958130	216.602509	1385.696655	-1212.150757	227.164062	883.470032	-770.988098	227.113113	884.281921	-985.608521	226.101166	455.465210	-775.206848	227.962723	453.942749	-988.293152	277.751923	71.040253	-739.839233	279.929321	70.297333	-1031.335938
223	1.115000	134.079315	918.280579	-761.954712	129.916168	918.958069	-984.467163	309.595367	950.027283	-912.291321	308.776276	953.263367	-852.378235	297.930786	966.410583	-882.256409	1270.831787	26.305704	346.447815	1226.423340	26.277166	-1876.951416	323.081970	39.823566	-1019.660095	128.185608	43.433441	-1043.318848	165.072388	34.810570	-1113.676392	140.175461	42.690948	-1079.965576	326.267853	45.825054	-745.165955	134.388367	46.327782	-736.448975	169.966232	33.417088	-662.791809	143.176620	45.904938	-698.042053	276.691681	72.944931	-778.692200	232.909576	456.931915	-829.024963	219.281464	453.995361	-721.389771	278.819489	69.137321	-700.983459	290.280212	209.593582	-691.438477	313.960449	270.891632	-691.372620	263.456238	268.156769	-684.494873	301.629517	314.313843	-687.010925	275.174011	68.350426	-994.062622	235.292648	446.551971	-935.352112	220.617981	461.320740	-1041.214600	284.670135	72.245903	-1068.600952	257.099945	319.280853	-1082.689331	307.554504	314.000275	-1077.168213	276.583923	256.138153	-1081.321289	241.885376	783.853088	-1060.046509	242.885895	635.154602	-1064.527832	191.464874	637.047119	-1066.572021	219.242874	697.050720	-1070.108643	238.658600	778.862305	-698.622192	236.484192	646.573730	-694.920410	185.868851	637.495667	-693.359741	200.302292	701.201782	-689.166687	130.822250	1592.922119	-775.653870	241.626526	1576.148071	-786.615173	253.184433	1571.369263	-910.110474	263.669006	1391.426025	-857.924377	285.998932	1007.442932	-877.339539	141.536133	1328.055176	-872.707397	245.480667	1380.994263	-725.150635	237.265137	1396.823853	-986.790710	166.083099	1358.462646	-222.784576	206.699966	1354.130127	-222.348053	152.621689	1337.941650	-130.824112	241.541077	1390.160034	-1500.592773	288.454071	1384.066772	-1499.713501	235.767426	1392.444336	-1590.739746	293.869720	1330.396362	-1271.365601	255.546570	1296.837158	-1271.962769	222.088791	1300.412476	-454.102081	181.222397	1277.996338	-466.816681	238.094803	1354.111816	-506.115875	202.190903	1371.654297	-536.675049	239.265594	1362.684692	-585.305115	266.867157	1382.691162	-1205.661743	257.636047	1384.266479	-1143.951660	216.608795	1385.780640	-1212.172241	227.171402	883.468750	-770.985046	227.132309	884.279480	-985.601685	226.095520	455.463623	-775.207397	227.955322	453.936340	-988.283325	277.755585	71.041122	-739.837830	279.922058	70.298164	-1031.331787
224	1.120000	134.093292	918.288940	-761.953003	129.936005	918.962646	-984.464355	309.613220	950.019409	-912.286804	308.797272	953.257446	-852.371643	297.958527	966.395142	-882.254272	1270.824463	26.298681	346.468201	1226.421631	26.279448	-1876.944702	323.078857	39.819687	-1019.653076	128.178970	43.435532	-1043.329956	165.009979	34.981544	-1113.793701	140.174927	42.691647	-1079.974365	326.259033	45.823742	-745.171814	134.393555	46.329178	-736.459167	169.962799	33.425983	-662.790161	143.178055	45.913128	-698.045593	276.689697	72.945137	-778.688721	232.913681	456.928070	-829.025452	219.278366	453.986176	-721.388245	278.810089	69.136292	-700.987671	290.273743	209.603119	-691.441650	313.945251	270.906921	-691.376282	263.379791	268.136536	-684.424438	301.627869	314.329193	-687.006470	275.177887	68.348732	-994.068665	235.288879	446.551392	-935.345886	220.609955	461.327698	-1041.218628	284.679077	72.252884	-1068.600830	257.100739	319.277771	-1082.687378	307.547821	313.997894	-1077.163574	276.571350	256.131195	-1081.316162	241.871658	783.855835	-1060.041748	242.892334	635.158875	-1064.524902	191.479462	637.042603	-1066.555786	219.212631	697.068420	-1070.109375	238.665909	778.864197	-698.617126	236.410660	646.739746	-694.269104	185.854904	637.489746	-693.363953	200.289230	701.211304	-689.162170	130.854446	1592.911255	-775.646362	241.642151	1576.162598	-786.619568	253.185440	1571.370728	-910.104797	263.688232	1391.419434	-857.924377	286.015350	1007.435303	-877.329468	141.567352	1328.054443	-872.695374	245.507278	1381.010376	-725.156799	237.291016	1396.832764	-986.789063	166.085144	1358.397461	-222.800247	206.700012	1354.052368	-222.353561	152.608383	1337.859863	-130.839493	241.574173	1390.202148	-1500.582764	288.485565	1384.108765	-1499.712524	235.797607	1392.499512	-1590.743286	293.902130	1330.428223	-1271.372803	255.583450	1296.870117	-1271.961548	222.099655	1300.367798	-454.119568	181.233124	1277.963745	-466.838165	238.111481	1354.079102	-506.117706	202.203110	1371.632446	-536.683899	239.299240	1362.688232	-585.283569	266.880768	1382.718872	-1205.659424	257.655579	1384.286621	-1143.953735	216.643646	1385.799927	-1212.164673	227.185486	883.470215	-770.980591	227.140289	884.279297	-985.597656	226.096024	455.457123	-775.206848	227.949417	453.939545	-988.282227	277.749878	71.040710	-739.838196	279.928467	70.300812	-1031.334717
